<!-- Generated by IcoMoon.io -->
<svg version="1.1" xmlns="http://www.w3.org/2000/svg" width="32" height="32" viewBox="0 0 32 32">
<title>client1</title>
<path fill="#afb1b8" d="M6.128 0l4.771 4.517-8.856-0.005v21.915h23.149v-8.379l4.766 4.512v-22.559h-23.83zM24.982 17.517l-13.528-12.807h13.528v12.807zM20.782 23.221h-15.076v-14.739h1.066v13.741h14.010v0.998zM8.712 30.499l-0.562-1.155h-0.464l0.814 1.529v0.891h0.421v-0.891l0.815-1.529h-0.462l-0.562 1.155zM10.783 29.344h0.1l0.914 2.42h-0.439l-0.196-0.567h-0.937l-0.195 0.567h-0.437l0.911-2.42h0.279zM10.34 30.867h0.709l-0.355-1.027-0.354 1.027zM13.264 30.466c-0.018-0.023-0.036-0.046-0.053-0.068-0.062-0.082-0.11-0.161-0.145-0.238-0.034-0.078-0.052-0.157-0.052-0.239 0-0.126 0.026-0.235 0.078-0.326s0.126-0.161 0.221-0.209c0.095-0.050 0.207-0.075 0.334-0.075 0.123 0 0.229 0.025 0.317 0.075 0.090 0.049 0.158 0.114 0.206 0.194 0.049 0.081 0.073 0.17 0.073 0.266 0 0.076-0.014 0.146-0.042 0.209s-0.066 0.121-0.115 0.173c-0.049 0.052-0.105 0.101-0.17 0.148l-0.168 0.122 0.479 0.566c0.016-0.031 0.030-0.064 0.043-0.098 0.041-0.106 0.062-0.224 0.062-0.354h0.346c0 0.117-0.012 0.229-0.035 0.334-0.022 0.105-0.058 0.203-0.108 0.293-0.020 0.037-0.043 0.073-0.069 0.107l0.355 0.418h-0.464l-0.141-0.165c-0.076 0.058-0.159 0.103-0.248 0.136-0.117 0.042-0.243 0.063-0.376 0.063-0.161 0-0.3-0.029-0.417-0.088s-0.208-0.14-0.273-0.243c-0.063-0.103-0.095-0.221-0.095-0.354 0-0.099 0.021-0.185 0.061-0.259 0.041-0.075 0.097-0.145 0.168-0.209 0.066-0.059 0.14-0.119 0.224-0.178zM13.463 30.709l-0.050 0.037c-0.059 0.048-0.103 0.094-0.131 0.138-0.028 0.043-0.046 0.083-0.055 0.12s-0.013 0.069-0.013 0.096c0 0.071 0.015 0.135 0.045 0.193 0.031 0.058 0.076 0.104 0.135 0.138 0.060 0.033 0.132 0.050 0.218 0.050 0.092 0 0.181-0.020 0.268-0.061 0.043-0.021 0.084-0.047 0.123-0.076l-0.539-0.633zM13.559 30.267l0.148-0.1c0.070-0.047 0.12-0.092 0.15-0.136 0.030-0.045 0.045-0.102 0.045-0.17 0-0.058-0.022-0.111-0.067-0.16s-0.107-0.073-0.188-0.073c-0.056 0-0.104 0.013-0.143 0.040-0.039 0.025-0.068 0.060-0.088 0.103-0.019 0.042-0.028 0.089-0.028 0.141 0 0.050 0.013 0.101 0.038 0.155 0.026 0.052 0.060 0.107 0.105 0.165 0.009 0.012 0.018 0.023 0.028 0.035zM17.793 30.976h-0.416c-0.012 0.105-0.038 0.194-0.076 0.268-0.038 0.072-0.094 0.127-0.168 0.165-0.073 0.038-0.169 0.057-0.288 0.057-0.098 0-0.181-0.019-0.251-0.058s-0.127-0.094-0.173-0.165c-0.044-0.071-0.078-0.156-0.1-0.254-0.021-0.1-0.032-0.211-0.032-0.332v-0.204c0-0.129 0.012-0.243 0.035-0.342 0.024-0.101 0.060-0.186 0.108-0.254s0.107-0.121 0.178-0.156c0.071-0.035 0.154-0.053 0.249-0.053 0.116 0 0.211 0.020 0.283 0.060 0.072 0.039 0.126 0.095 0.163 0.17 0.038 0.074 0.062 0.163 0.073 0.268h0.416c-0.017-0.162-0.062-0.305-0.136-0.43-0.073-0.125-0.176-0.223-0.309-0.294s-0.296-0.106-0.489-0.106c-0.152 0-0.289 0.027-0.411 0.080-0.121 0.053-0.224 0.13-0.311 0.231-0.086 0.1-0.153 0.22-0.2 0.361-0.045 0.141-0.068 0.298-0.068 0.472v0.201c0 0.174 0.022 0.331 0.067 0.472 0.045 0.141 0.111 0.261 0.196 0.361 0.085 0.099 0.188 0.175 0.307 0.229 0.12 0.053 0.254 0.080 0.404 0.080 0.195 0 0.361-0.035 0.497-0.106s0.242-0.168 0.317-0.291c0.075-0.124 0.12-0.265 0.133-0.424zM20.102 30.621v-0.133c0-0.183-0.024-0.346-0.073-0.49-0.048-0.145-0.116-0.269-0.204-0.371-0.089-0.103-0.194-0.181-0.317-0.234-0.123-0.054-0.259-0.081-0.409-0.081-0.148 0-0.284 0.027-0.407 0.081-0.122 0.053-0.228 0.131-0.317 0.234-0.089 0.102-0.157 0.226-0.206 0.371-0.049 0.144-0.073 0.308-0.073 0.49v0.133c0 0.183 0.024 0.347 0.073 0.492 0.050 0.145 0.12 0.269 0.209 0.371s0.196 0.18 0.317 0.234c0.123 0.053 0.259 0.080 0.407 0.080 0.15 0 0.286-0.027 0.409-0.080 0.123-0.054 0.228-0.132 0.316-0.234 0.089-0.102 0.157-0.226 0.204-0.371s0.072-0.309 0.072-0.492zM19.684 30.484v0.136c0 0.135-0.013 0.255-0.040 0.359-0.025 0.104-0.063 0.192-0.113 0.264-0.050 0.071-0.111 0.125-0.183 0.161-0.072 0.035-0.155 0.053-0.248 0.053-0.092 0-0.174-0.018-0.246-0.053-0.072-0.037-0.134-0.090-0.186-0.161-0.051-0.072-0.090-0.16-0.116-0.264s-0.040-0.224-0.040-0.359v-0.136c0-0.135 0.013-0.254 0.040-0.357 0.027-0.104 0.065-0.191 0.115-0.261 0.051-0.071 0.112-0.124 0.184-0.16 0.072-0.037 0.154-0.055 0.246-0.055s0.175 0.018 0.248 0.055c0.073 0.035 0.135 0.089 0.184 0.16 0.051 0.070 0.089 0.157 0.115 0.261 0.027 0.103 0.040 0.222 0.040 0.357z"></path>
<path fill="#afb1b8" d="M10.899 4.517l-0 0.681 1.711 0.001-1.243-1.176-0.468 0.494zM6.128 0v-0.681h-1.71l1.241 1.175 0.468-0.494zM2.043 4.512l0-0.681-0.681-0v0.681h0.681zM2.043 26.426h-0.681v0.681h0.681v-0.681zM25.192 26.426v0.681h0.681v-0.681h-0.681zM25.192 18.047l0.468-0.494-1.149-1.088v1.582h0.681zM29.957 22.559l-0.468 0.494 1.149 1.088v-1.582h-0.681zM29.957 0h0.681v-0.681h-0.681v0.681zM11.454 4.71v-0.681h-1.71l1.242 1.175 0.468-0.494zM24.982 17.517l-0.468 0.494 1.149 1.088v-1.582h-0.681zM24.982 4.71h0.681v-0.681h-0.681v0.681zM5.706 23.221h-0.681v0.681h0.681v-0.681zM20.782 23.221v0.681h0.681v-0.681h-0.681zM5.706 8.482v-0.681h-0.681v0.681h0.681zM6.771 8.482h0.681v-0.681h-0.681v0.681zM6.771 22.223h-0.681v0.681h0.681v-0.681zM20.782 22.223h0.681v-0.681h-0.681v0.681zM8.15 29.344l0.612-0.298-0.186-0.383h-0.426v0.681zM8.712 30.499l-0.612 0.298 0.612 1.259 0.612-1.259-0.612-0.298zM7.686 29.344v-0.681h-1.134l0.533 1.001 0.601-0.32zM8.501 30.873h0.681v-0.17l-0.080-0.15-0.601 0.32zM8.501 31.764h-0.681v0.681h0.681v-0.681zM8.922 31.764v0.681h0.681v-0.681h-0.681zM8.922 30.873l-0.601-0.32-0.080 0.15v0.17h0.681zM9.736 29.344l0.601 0.32 0.533-1.001h-1.134v0.681zM9.274 29.344v-0.681h-0.426l-0.186 0.383 0.612 0.298zM10.883 29.344l0.637-0.241-0.166-0.44h-0.471v0.681zM11.797 31.764v0.681h0.985l-0.348-0.921-0.637 0.241zM11.358 31.764l-0.644 0.222 0.158 0.458h0.485v-0.681zM11.163 31.197l0.644-0.222-0.158-0.459h-0.485v0.681zM10.226 31.197v-0.681h-0.486l-0.158 0.459 0.644 0.222zM10.030 31.764v0.681h0.486l0.158-0.459-0.644-0.222zM9.593 31.764l-0.637-0.24-0.347 0.921h0.984v-0.681zM10.504 29.344v-0.681h-0.471l-0.166 0.441 0.637 0.24zM10.34 30.867l-0.644-0.222-0.311 0.903h0.955v-0.681zM11.048 30.867v0.681h0.956l-0.312-0.903-0.644 0.222zM10.694 29.84l0.643-0.222-0.644-1.865-0.643 1.865 0.644 0.222zM13.264 30.466l0.394 0.555 0.584-0.414-0.442-0.562-0.535 0.421zM13.212 30.398l-0.543 0.411 0.003 0.004 0.54-0.414zM13.067 30.16l-0.623 0.276 0.002 0.003 0.621-0.279zM13.315 29.386l0.31 0.606 0.006-0.003-0.316-0.603zM13.966 29.386l-0.334 0.593 0.004 0.003 0.004 0.002 0.325-0.598zM14.173 29.58l-0.587 0.346 0.004 0.006 0.583-0.351zM13.92 30.376l-0.399-0.551-0.001 0.001 0.401 0.55zM13.752 30.499l-0.401-0.55-0.593 0.431 0.474 0.559 0.519-0.44zM14.231 31.064l-0.519 0.44 0.662 0.782 0.464-0.914-0.607-0.308zM14.274 30.966l-0.635-0.245-0.002 0.006 0.637 0.239zM14.335 30.612v-0.681h-0.681v0.681h0.681zM14.681 30.612h0.681v-0.681h-0.681v0.681zM14.646 30.946l-0.665-0.147-0.001 0.007 0.666 0.14zM14.538 31.239l-0.595-0.331-0.003 0.006 0.598 0.325zM14.47 31.346l-0.544-0.409-0.327 0.435 0.351 0.415 0.52-0.44zM14.824 31.764v0.681h1.469l-0.95-1.121-0.52 0.44zM14.36 31.764l-0.519 0.441 0.204 0.24h0.315v-0.681zM14.22 31.599l0.519-0.441-0.417-0.491-0.513 0.389 0.411 0.542zM13.971 31.734l0.23 0.641 0.003-0.001-0.233-0.64zM12.906 31.467l-0.581 0.356 0.003 0.005 0.578-0.36zM12.873 30.853l0.596 0.329 0.002-0.004-0.598-0.325zM13.041 30.644l0.457 0.505 0-0-0.458-0.504zM13.463 30.709l0.519-0.441-0.409-0.481-0.51 0.372 0.401 0.55zM13.413 30.745l-0.401-0.55-0.014 0.011-0.014 0.011 0.429 0.529zM13.282 30.883l-0.571-0.371-0.002 0.004 0.573 0.367zM13.258 31.292l-0.604 0.314 0.002 0.005 0.002 0.005 0.599-0.323zM13.393 31.43l-0.344 0.588 0.007 0.004 0.007 0.004 0.331-0.595zM13.878 31.419l0.292 0.615 0.006-0.003-0.298-0.612zM14.002 31.342l0.414 0.541 0.569-0.436-0.464-0.546-0.519 0.441zM13.559 30.267l-0.532 0.425 0.392 0.49 0.521-0.351-0.38-0.565zM13.707 30.167l-0.378-0.566-0.003 0.002 0.38 0.565zM13.857 30.031l0.564 0.381 0.004-0.006-0.569-0.374zM13.504 29.668l0.374 0.569 0.006-0.004 0.005-0.004-0.385-0.561zM13.416 29.771l-0.618-0.285-0.003 0.007 0.621 0.278zM13.426 30.067l-0.614 0.294 0.002 0.005 0.612-0.299zM13.531 30.232l-0.54 0.415 0.004 0.005 0.536-0.42zM17.377 30.976v-0.681h-0.607l-0.070 0.603 0.676 0.078zM17.793 30.976l0.678 0.057 0.062-0.738h-0.74v0.681zM17.301 31.244l-0.601-0.319-0.002 0.003 0.603 0.316zM17.133 31.409l-0.308-0.607-0.004 0.002 0.312 0.605zM16.422 31.242l-0.577 0.361 0.004 0.006 0.573-0.367zM16.322 30.988l-0.666 0.141 0.002 0.009 0.664-0.149zM16.325 30.109l-0.662-0.16-0.001 0.005 0.663 0.155zM17.143 29.705l-0.33 0.596 0.007 0.004 0.323-0.599zM17.306 29.874l-0.611 0.301 0.004 0.007 0.607-0.308zM17.379 30.142l-0.677 0.072 0.065 0.609h0.612v-0.681zM17.795 30.142v0.681h0.754l-0.077-0.75-0.677 0.070zM17.658 29.711l-0.588 0.343 0.002 0.004 0.586-0.347zM16.45 29.391l-0.272-0.624-0.002 0.001 0.274 0.623zM16.139 29.622l0.515 0.446 0.002-0.003-0.517-0.443zM15.939 29.982l-0.646-0.214-0.002 0.005 0.648 0.209zM15.938 31.128l-0.649 0.205 0.002 0.005 0.648-0.209zM16.134 31.488l-0.517 0.443 0.002 0.003 0.515-0.445zM16.441 31.718l-0.281 0.62 0.005 0.002 0.276-0.622zM17.66 31.4l0.581 0.356 0.001-0.002-0.582-0.353zM20.029 29.997l-0.647 0.212 0.002 0.006 0.645-0.218zM19.824 29.627l-0.516 0.444 0.002 0.003 0.514-0.447zM19.507 29.392l-0.275 0.623 0.005 0.002 0.27-0.625zM18.691 29.392l0.272 0.624 0.003-0.001-0.275-0.623zM18.373 29.627l-0.513-0.447-0 0 0.514 0.447zM18.167 29.997l0.645 0.218 0.001-0.002-0.645-0.217zM18.167 31.113l-0.645 0.217 0.002 0.004 0.644-0.221zM18.694 31.718l-0.277 0.622 0.007 0.003 0.27-0.625zM19.51 31.718l0.27 0.625 0.005-0.002-0.275-0.623zM19.826 31.483l-0.514-0.447-0.003 0.003 0.517 0.444zM19.645 30.98l-0.66-0.168-0.002 0.007 0.661 0.162zM19.532 31.244l0.557 0.392 0.003-0.004-0.56-0.388zM19.349 31.405l0.301 0.611 0.007-0.004-0.308-0.607zM18.855 31.405l-0.308 0.607 0.008 0.004 0.301-0.611zM18.669 31.244l-0.556 0.393 0.003 0.005 0.004 0.005 0.549-0.403zM18.552 30.127l0.659 0.17 0-0.002-0.66-0.168zM18.667 29.866l-0.553-0.397-0.001 0.002 0.554 0.396zM18.852 29.706l0.301 0.611 0.008-0.004-0.308-0.607zM19.345 29.706l-0.305 0.609 0.008 0.004 0.297-0.613zM19.53 29.866l-0.557 0.392 0.004 0.005 0.004 0.005 0.55-0.401zM19.645 30.127l-0.661 0.162 0.002 0.008 0.659-0.17zM11.367 4.022l-4.771-4.517-0.936 0.989 4.771 4.517 0.936-0.989zM2.042 5.192l8.856 0.005 0.001-1.362-8.856-0.005-0.001 1.362zM2.723 26.426v-21.915h-1.362v21.915h1.362zM25.192 25.745h-23.149v1.362h23.149v-1.362zM24.511 18.047v8.379h1.362v-8.379h-1.362zM30.426 22.065l-4.766-4.512-0.936 0.989 4.766 4.512 0.936-0.989zM29.277 0v22.559h1.362v-22.559h-1.362zM6.128 0.681h23.83v-1.362h-23.83v1.362zM10.986 5.205l13.528 12.807 0.936-0.989-13.528-12.807-0.936 0.989zM24.982 4.029h-13.528v1.362h13.528v-1.362zM25.663 17.517v-12.807h-1.362v12.807h1.362zM5.706 23.902h15.076v-1.362h-15.076v1.362zM5.025 8.482v14.739h1.362v-14.739h-1.362zM6.771 7.801h-1.066v1.362h1.066v-1.362zM7.452 22.223v-13.741h-1.362v13.741h1.362zM20.782 21.542h-14.010v1.362h14.010v-1.362zM21.463 23.221v-0.998h-1.362v0.998h1.362zM7.538 29.642l0.562 1.155 1.225-0.596-0.562-1.155-1.225 0.596zM7.686 30.025h0.464v-1.362h-0.464v1.362zM9.102 30.553l-0.815-1.529-1.202 0.64 0.814 1.529 1.202-0.64zM9.182 31.764v-0.891h-1.362v0.891h1.362zM8.922 31.083h-0.421v1.362h0.421v-1.362zM8.241 30.873v0.891h1.362v-0.891h-1.362zM9.135 29.024l-0.815 1.529 1.202 0.64 0.815-1.529-1.202-0.64zM9.274 30.025h0.462v-1.362h-0.462v1.362zM9.324 30.797l0.562-1.155-1.225-0.596-0.562 1.155 1.225 0.596zM10.783 30.025h0.1v-1.362h-0.1v1.362zM10.246 29.585l0.914 2.42 1.274-0.481-0.914-2.42-1.274 0.481zM11.797 31.083h-0.439v1.362h0.439v-1.362zM12.002 31.542l-0.196-0.567-1.287 0.445 0.196 0.567 1.287-0.445zM11.163 30.517h-0.937v1.362h0.937v-1.362zM9.582 30.976l-0.195 0.567 1.287 0.444 0.195-0.567-1.287-0.444zM10.030 31.083h-0.437v1.362h0.437v-1.362zM10.23 32.004l0.911-2.42-1.274-0.48-0.911 2.42 1.274 0.48zM10.504 30.025h0.098v-1.362h-0.098v1.362zM10.602 30.025h0.181v-1.362h-0.181v1.362zM10.34 31.547h0.709v-1.362h-0.709v1.362zM11.692 30.644l-0.355-1.027-1.287 0.445 0.355 1.027 1.287-0.445zM10.050 29.618l-0.354 1.027 1.287 0.444 0.354-1.027-1.287-0.444zM13.8 30.045c-0.017-0.021-0.032-0.042-0.048-0.061l-1.080 0.829c0.019 0.024 0.038 0.049 0.058 0.074l1.070-0.842zM13.755 29.987c-0.038-0.050-0.057-0.085-0.066-0.106l-1.242 0.558c0.059 0.132 0.136 0.255 0.223 0.369l1.086-0.822zM13.69 29.885c0.001 0.002 0.003 0.007 0.004 0.014s0.002 0.015 0.002 0.022h-1.362c0 0.18 0.038 0.354 0.11 0.515l1.245-0.551zM13.696 29.921c0-0.017 0.002-0.021 0.001-0.017-0 0.002-0.002 0.006-0.004 0.011s-0.005 0.012-0.009 0.019l-1.181-0.677c-0.122 0.213-0.168 0.444-0.168 0.664h1.362zM13.684 29.934c-0.006 0.010-0.015 0.023-0.028 0.035s-0.024 0.019-0.031 0.023l-0.62-1.212c-0.21 0.107-0.382 0.269-0.502 0.477l1.181 0.677zM13.63 29.989c-0.008 0.004-0.013 0.005-0.012 0.005s0.011-0.002 0.030-0.002v-1.362c-0.217 0-0.441 0.043-0.65 0.152l0.631 1.207zM13.649 29.992c0.016 0 0.020 0.002 0.015 0.001s-0.017-0.005-0.032-0.013l0.668-1.187c-0.21-0.118-0.436-0.162-0.651-0.162v1.362zM13.641 29.984c-0.003-0.001-0.012-0.007-0.023-0.018s-0.023-0.025-0.032-0.040l1.173-0.691c-0.116-0.197-0.279-0.345-0.468-0.447l-0.65 1.197zM13.589 29.932c-0.007-0.011-0.014-0.026-0.019-0.044s-0.006-0.032-0.006-0.042h1.362c0-0.218-0.057-0.428-0.171-0.617l-1.166 0.703zM13.565 29.846c0-0.007 0.002-0.032 0.016-0.064l1.247 0.547c0.069-0.158 0.099-0.323 0.099-0.483h-1.362zM13.581 29.782c0.002-0.004 0.004-0.009 0.007-0.012s0.004-0.006 0.005-0.007l0.994 0.931c0.1-0.107 0.181-0.229 0.241-0.365l-1.247-0.547zM13.592 29.763c-0.016 0.017-0.039 0.038-0.072 0.062l0.799 1.103c0.096-0.069 0.186-0.147 0.267-0.234l-0.994-0.931zM13.519 29.826l-0.168 0.122 0.801 1.101 0.168-0.122-0.801-1.101zM13.232 30.939l0.479 0.566 1.039-0.88-0.479-0.566-1.039 0.88zM14.838 31.373c0.028-0.055 0.052-0.11 0.073-0.167l-1.275-0.478c-0.004 0.012-0.009 0.021-0.012 0.029l1.214 0.617zM14.909 31.211c0.075-0.195 0.107-0.397 0.107-0.599h-1.362c0 0.057-0.009 0.091-0.016 0.109l1.271 0.49zM14.335 31.293h0.346v-1.362h-0.346v1.362zM14 30.612c0 0.072-0.007 0.134-0.019 0.187l1.33 0.294c0.035-0.158 0.051-0.319 0.051-0.481h-1.362zM13.98 30.806c-0.009 0.042-0.022 0.075-0.037 0.102l1.19 0.661c0.085-0.152 0.144-0.314 0.179-0.483l-1.332-0.281zM13.94 30.914c-0.004 0.008-0.009 0.015-0.014 0.023l1.088 0.818c0.046-0.061 0.087-0.124 0.123-0.191l-1.197-0.65zM13.95 31.786l0.355 0.419 1.039-0.88-0.355-0.419-1.039 0.88zM14.824 31.083h-0.464v1.362h0.464v-1.362zM14.879 31.323l-0.141-0.165-1.037 0.882 0.141 0.165 1.037-0.882zM13.808 31.056c-0.022 0.017-0.045 0.029-0.070 0.038l0.466 1.279c0.154-0.056 0.296-0.134 0.427-0.233l-0.823-1.085zM13.742 31.093c-0.039 0.014-0.086 0.023-0.146 0.023v1.362c0.206 0 0.409-0.033 0.605-0.103l-0.46-1.282zM13.596 31.117c-0.078 0-0.109-0.014-0.113-0.016l-0.609 1.218c0.231 0.115 0.479 0.16 0.722 0.16v-1.362zM13.483 31.1c-0.009-0.005-0.011-0.007-0.008-0.004 0.001 0.001 0.003 0.003 0.005 0.005s0.003 0.004 0.004 0.006l-1.155 0.721c0.136 0.218 0.325 0.381 0.546 0.491l0.609-1.218zM13.486 31.111c0.001 0.002 0.003 0.005 0.004 0.008s0.002 0.005 0.002 0.007-0.001 0-0.001-0.012h-1.362c0 0.246 0.060 0.489 0.195 0.71l1.161-0.712zM13.492 31.113c0-0.002 0 0.005-0.003 0.018s-0.010 0.032-0.020 0.051l-1.192-0.658c-0.105 0.19-0.146 0.394-0.146 0.588h1.362zM13.471 31.179c0-0.001 0.006-0.012 0.027-0.030l-0.914-1.009c-0.121 0.11-0.227 0.239-0.309 0.389l1.196 0.651zM13.498 31.148c0.042-0.038 0.095-0.081 0.16-0.127l-0.788-1.111c-0.103 0.073-0.199 0.149-0.288 0.229l0.915 1.008zM13.062 30.158l-0.050 0.037 0.801 1.101 0.050-0.037-0.801-1.101zM12.984 30.217c-0.092 0.075-0.193 0.172-0.273 0.296l1.142 0.742c-0.012 0.019-0.022 0.029-0.023 0.031s0.002-0.002 0.013-0.011l-0.858-1.057zM12.708 30.516c-0.055 0.085-0.111 0.195-0.143 0.327l1.323 0.321c-0.007 0.030-0.016 0.053-0.022 0.066s-0.011 0.021-0.011 0.021l-1.146-0.735zM12.565 30.843c-0.017 0.072-0.032 0.16-0.032 0.257h1.362c0 0.022-0.002 0.038-0.003 0.048s-0.003 0.015-0.003 0.016l-1.323-0.321zM12.533 31.099c0 0.17 0.037 0.343 0.121 0.507l1.209-0.628c0.025 0.048 0.032 0.093 0.032 0.121h-1.362zM12.659 31.615c0.093 0.172 0.228 0.308 0.39 0.403l0.688-1.175c0.020 0.012 0.043 0.029 0.066 0.052s0.041 0.049 0.055 0.075l-1.199 0.645zM13.062 32.025c0.183 0.102 0.375 0.136 0.548 0.136v-1.362c0.002 0 0.050 0.001 0.113 0.036l-0.661 1.19zM13.611 32.161c0.197 0 0.386-0.045 0.559-0.127l-0.584-1.23c-0.001 0 0.002-0.001 0.008-0.002s0.012-0.002 0.017-0.002v1.362zM14.176 32.031c0.085-0.041 0.165-0.091 0.239-0.148l-0.827-1.082c-0.003 0.003-0.006 0.004-0.008 0.005l0.596 1.224zM14.52 30.901l-0.539-0.633-1.037 0.882 0.539 0.633 1.037-0.882zM13.939 30.832l0.148-0.1-0.761-1.13-0.148 0.1 0.761 1.13zM14.085 30.733c0.106-0.071 0.237-0.174 0.336-0.322l-1.129-0.762c0.022-0.033 0.041-0.050 0.046-0.055s0.004-0.003-0.009 0.006l0.755 1.133zM14.425 30.405c0.119-0.181 0.157-0.376 0.157-0.544h-1.362c0-0.033 0.008-0.115 0.067-0.205l1.137 0.749zM14.582 29.861c0-0.251-0.103-0.463-0.244-0.618l-1.008 0.916c-0.023-0.025-0.052-0.065-0.075-0.12-0.024-0.056-0.036-0.118-0.036-0.179h1.362zM14.339 29.243c-0.202-0.222-0.466-0.296-0.692-0.296v1.362c-0.027 0-0.078-0.004-0.139-0.028-0.065-0.025-0.127-0.067-0.177-0.122l1.008-0.916zM13.647 28.947c-0.166 0-0.355 0.040-0.528 0.159l0.77 1.123c-0.096 0.066-0.189 0.079-0.242 0.079v-1.362zM13.13 29.099c-0.148 0.097-0.261 0.231-0.332 0.387l1.236 0.571c-0.032 0.069-0.086 0.134-0.156 0.181l-0.748-1.138zM12.795 29.493c-0.063 0.14-0.088 0.284-0.088 0.419h1.362c0 0.031-0.006 0.081-0.031 0.137l-1.243-0.556zM12.707 29.913c0 0.169 0.044 0.32 0.105 0.449l1.228-0.588c0.011 0.022 0.029 0.071 0.029 0.14h-1.362zM12.815 30.366c0.050 0.102 0.111 0.195 0.177 0.28l1.079-0.83c-0.023-0.030-0.032-0.046-0.033-0.049l-1.223 0.599zM12.995 30.652c0.010 0.013 0.021 0.026 0.032 0.040l1.064-0.85c-0.008-0.010-0.016-0.020-0.024-0.030l-1.071 0.84zM17.377 31.657h0.416v-1.362h-0.416v1.362zM17.902 31.563c0.088-0.166 0.132-0.341 0.151-0.508l-1.353-0.157c-0.002 0.021-0.005 0.033-0.007 0.037s-0-0 0.005-0.010l1.203 0.638zM17.441 32.016c0.197-0.1 0.358-0.255 0.463-0.456l-1.207-0.631c0.013-0.025 0.032-0.051 0.056-0.076s0.050-0.041 0.071-0.052l0.616 1.214zM16.845 32.146c0.182 0 0.397-0.028 0.599-0.132l-0.624-1.21c0.030-0.015 0.050-0.020 0.054-0.020s-0.005 0.001-0.030 0.001v1.362zM16.264 32.002c0.191 0.106 0.394 0.144 0.582 0.144v-1.362c-0.007 0 0.028-0.001 0.080 0.027l-0.661 1.19zM15.848 31.61c0.103 0.16 0.242 0.296 0.416 0.393l0.661-1.19c0.015 0.009 0.030 0.019 0.043 0.032s0.022 0.024 0.027 0.032l-1.147 0.735zM15.658 31.137c0.036 0.158 0.094 0.318 0.187 0.466l1.155-0.722c0.004 0.006-0.004-0.004-0.013-0.043l-1.329 0.299zM15.609 30.656c0 0.16 0.014 0.319 0.046 0.473l1.332-0.281c-0.010-0.046-0.017-0.108-0.017-0.192h-1.362zM15.609 30.451v0.204h1.362v-0.204h-1.362zM15.662 29.954c-0.038 0.161-0.053 0.329-0.053 0.497h1.362c0-0.089 0.008-0.15 0.017-0.188l-1.326-0.309zM15.874 29.466c-0.106 0.152-0.171 0.319-0.21 0.482l1.324 0.32c0.009-0.038 0.016-0.041 0.006-0.026l-1.119-0.776zM16.307 29.089c-0.179 0.089-0.324 0.22-0.433 0.377l1.119 0.776c-0.006 0.008-0.016 0.020-0.030 0.033s-0.031 0.024-0.047 0.032l-0.609-1.218zM16.86 28.964c-0.18 0-0.371 0.034-0.554 0.125l0.609 1.218c-0.041 0.020-0.066 0.019-0.055 0.019v-1.362zM17.473 29.109c-0.206-0.114-0.426-0.145-0.612-0.145v1.362c0.020 0 0.024 0.002 0.017 0s-0.032-0.008-0.064-0.026l0.66-1.191zM17.917 29.573c-0.098-0.2-0.253-0.361-0.451-0.468l-0.646 1.199c-0.024-0.013-0.049-0.031-0.073-0.056s-0.041-0.051-0.052-0.073l1.222-0.602zM18.056 30.070c-0.018-0.166-0.060-0.339-0.143-0.504l-1.214 0.616c-0.004-0.008-0.004-0.011-0.003-0.006s0.004 0.017 0.006 0.038l1.354-0.144zM17.795 29.461h-0.416v1.362h0.416v-1.362zM17.073 30.059c0.018 0.031 0.037 0.078 0.045 0.153l1.355-0.139c-0.026-0.248-0.098-0.489-0.228-0.708l-1.171 0.694zM17.029 30.018c0.026 0.014 0.035 0.025 0.042 0.037l1.176-0.687c-0.139-0.238-0.337-0.424-0.577-0.552l-0.641 1.201zM16.86 29.992c0.111 0 0.158 0.021 0.168 0.026l0.641-1.201c-0.255-0.136-0.535-0.186-0.809-0.186v1.362zM16.722 30.015c0.025-0.011 0.067-0.023 0.138-0.023v-1.362c-0.232 0-0.464 0.041-0.683 0.137l0.545 1.248zM16.656 30.065c0.020-0.024 0.041-0.039 0.068-0.051l-0.549-1.246c-0.215 0.095-0.401 0.233-0.553 0.411l1.034 0.886zM16.586 30.196c0.022-0.066 0.047-0.105 0.068-0.129l-1.029-0.892c-0.152 0.176-0.26 0.377-0.331 0.593l1.293 0.428zM16.552 30.454c0-0.115 0.015-0.2 0.035-0.263l-1.296-0.418c-0.071 0.219-0.101 0.448-0.101 0.681h1.362zM16.552 30.656v-0.201h-1.362v0.201h1.362zM16.587 30.923c-0.020-0.064-0.035-0.151-0.035-0.267h-1.362c0 0.231 0.029 0.459 0.098 0.677l1.299-0.409zM16.651 31.046c-0.020-0.023-0.044-0.061-0.066-0.127l-1.296 0.418c0.070 0.216 0.176 0.418 0.327 0.594l1.035-0.885zM16.723 31.098c-0.031-0.014-0.053-0.031-0.074-0.055l-1.030 0.891c0.15 0.174 0.333 0.309 0.541 0.404l0.563-1.24zM16.845 31.117c-0.068 0-0.106-0.012-0.127-0.021l-0.553 1.244c0.218 0.097 0.449 0.138 0.68 0.138v-1.362zM17.028 31.087c-0.017 0.009-0.068 0.029-0.183 0.029v1.362c0.276 0 0.555-0.050 0.811-0.183l-0.629-1.208zM17.079 31.045c-0.007 0.011-0.017 0.025-0.051 0.043l0.629 1.208c0.238-0.124 0.44-0.304 0.584-0.539l-1.161-0.711zM17.114 30.919c-0.005 0.064-0.021 0.102-0.037 0.127l1.164 0.707c0.135-0.222 0.208-0.467 0.229-0.72l-1.357-0.114zM19.421 30.488v0.133h1.362v-0.133h-1.362zM19.384 30.216c0.021 0.061 0.037 0.149 0.037 0.272h1.362c0-0.243-0.032-0.482-0.109-0.709l-1.29 0.437zM19.31 30.073c0.022 0.025 0.048 0.066 0.071 0.136l1.294-0.425c-0.072-0.22-0.182-0.426-0.338-0.605l-1.028 0.893zM19.236 30.017c0.027 0.012 0.049 0.027 0.072 0.053l1.032-0.888c-0.155-0.18-0.344-0.321-0.563-0.415l-0.54 1.25zM19.098 29.992c0.066 0 0.107 0.012 0.134 0.023l0.55-1.246c-0.219-0.097-0.45-0.139-0.684-0.139v1.362zM18.965 30.015c0.028-0.012 0.069-0.023 0.132-0.023v-1.362c-0.233 0-0.464 0.043-0.682 0.139l0.55 1.246zM18.886 30.074c0.025-0.029 0.050-0.046 0.076-0.057l-0.545-1.248c-0.217 0.095-0.404 0.234-0.559 0.411l1.027 0.894zM18.812 30.214c0.024-0.072 0.052-0.114 0.075-0.141l-1.028-0.893c-0.154 0.178-0.264 0.382-0.338 0.601l1.291 0.434zM18.775 30.488c0-0.123 0.016-0.211 0.037-0.272l-1.29-0.437c-0.077 0.227-0.109 0.466-0.109 0.709h1.362zM18.775 30.621v-0.133h-1.362v0.133h1.362zM18.812 30.896c-0.021-0.063-0.038-0.152-0.038-0.275h-1.362c0 0.243 0.032 0.482 0.109 0.709l1.291-0.434zM18.887 31.033c-0.024-0.027-0.052-0.070-0.077-0.142l-1.288 0.442c0.075 0.218 0.187 0.422 0.342 0.599l1.022-0.9zM18.971 31.096c-0.031-0.014-0.057-0.033-0.084-0.062l-1.022 0.9c0.153 0.174 0.338 0.312 0.551 0.406l0.554-1.244zM19.101 31.117c-0.066 0-0.108-0.011-0.137-0.024l-0.541 1.25c0.217 0.094 0.446 0.136 0.677 0.136v-1.362zM19.24 31.093c-0.028 0.012-0.071 0.024-0.139 0.024v1.362c0.232 0 0.461-0.042 0.679-0.136l-0.54-1.25zM19.309 31.040c-0.021 0.025-0.044 0.042-0.074 0.055l0.55 1.246c0.216-0.095 0.404-0.235 0.557-0.414l-1.033-0.887zM19.383 30.9c-0.023 0.070-0.050 0.111-0.071 0.136l1.028 0.894c0.156-0.179 0.265-0.385 0.338-0.605l-1.294-0.425zM19.421 30.621c0 0.124-0.016 0.215-0.038 0.28l1.294 0.425c0.074-0.226 0.105-0.463 0.105-0.704h-1.362zM20.365 30.621v-0.136h-1.362v0.136h1.362zM20.304 31.148c0.044-0.171 0.061-0.349 0.061-0.527h-1.362c0 0.092-0.009 0.153-0.019 0.191l1.319 0.337zM20.091 31.632c0.107-0.154 0.174-0.323 0.215-0.49l-1.323-0.324c-0.010 0.041-0.018 0.048-0.012 0.039l1.12 0.775zM19.657 32.012c0.179-0.091 0.323-0.222 0.432-0.377l-1.114-0.783c0.004-0.005 0.011-0.015 0.023-0.026s0.027-0.021 0.042-0.029l0.616 1.214zM19.101 32.139c0.181 0 0.369-0.035 0.548-0.123l-0.601-1.222c0.017-0.008 0.031-0.013 0.042-0.015s0.015-0.002 0.011-0.002v1.362zM18.554 32.016c0.178 0.088 0.366 0.123 0.547 0.123v-1.362c-0.002 0 0.003-0 0.013 0.002s0.025 0.007 0.041 0.015l-0.601 1.222zM18.12 31.647c0.109 0.149 0.251 0.276 0.427 0.365l0.616-1.214c0.014 0.007 0.027 0.016 0.037 0.025s0.016 0.016 0.017 0.018l-1.098 0.806zM17.893 31.148c0.043 0.168 0.112 0.336 0.22 0.489l1.111-0.787c0.006 0.009-0.002 0.001-0.012-0.039l-1.319 0.337zM17.832 30.621c0 0.178 0.017 0.356 0.061 0.527l1.319-0.337c-0.009-0.037-0.019-0.098-0.019-0.191h-1.362zM17.832 30.484v0.136h1.362v-0.136h-1.362zM17.893 29.957c-0.044 0.171-0.061 0.35-0.061 0.528h1.362c0-0.092 0.009-0.152 0.018-0.187l-1.319-0.34zM18.113 29.47c-0.109 0.153-0.178 0.322-0.22 0.488l1.319 0.337c0.011-0.042 0.019-0.047 0.009-0.034l-1.108-0.791zM18.551 29.096c-0.181 0.089-0.326 0.22-0.437 0.373l1.106 0.795c-0.003 0.005-0.011 0.014-0.023 0.024s-0.028 0.021-0.045 0.029l-0.601-1.222zM19.098 28.971c-0.184 0-0.374 0.037-0.554 0.129l0.616 1.214c-0.017 0.009-0.032 0.014-0.045 0.016s-0.019 0.003-0.018 0.003v-1.362zM19.65 29.097c-0.179-0.089-0.368-0.127-0.552-0.127v1.362c0.001 0-0.005 0-0.016-0.002s-0.025-0.007-0.040-0.015l0.609-1.218zM20.087 29.474c-0.112-0.159-0.26-0.291-0.444-0.381l-0.594 1.225c-0.017-0.008-0.033-0.019-0.047-0.031s-0.023-0.023-0.028-0.030l1.114-0.783zM20.306 29.965c-0.042-0.171-0.112-0.344-0.226-0.501l-1.1 0.803c-0.012-0.017-0.006-0.017 0.003 0.021l1.323-0.324zM20.365 30.484c0-0.178-0.017-0.356-0.061-0.528l-1.318 0.34c0.009 0.035 0.018 0.095 0.018 0.187h1.362z"></path>
</svg>
